Patient4_TMGait_0pt8_01_right_12_EMG.mot
version=1
nRows=40
nColumns=33
inDegrees=no
endheader
time	1LAddLong	2LGlutMax	3LGlutMed	4LIliopsoas	5LSemiMemb	6LBicFemLong	7LRecFem	8LVastMed	9LVastLat	10LGasMed	11LTibAnt	12lTibPost	13LPeroneusLong	14LSol	15LExtDigLong	16LFlexDigLong	17RAddLong	18RGlutMax	19RGlutMed	20RIliopsoas	21RSemiMemb	22RBicFemLong	23RRecFem	24RVastMed	25RVastLat	26RGasMed	27RTibAnt	28RTibPost	29RPeroneusLong	30RSol	31RExtDigLong	32RFlexDigLong
14.398	0.057831	-0.032196	0.15961	-0.000458	0.012665	-0.024109	0.39063	0.001984	-0.07309	0.60089	-0.006256	0.076447	-0.01709	-0.22934	0.027008	0.59311	-0.083923	0.077667	1.2462	-0.11307	0.18585	0.026855	0.003204	-0.045319	-0.021362	0.017395	-0.17609	-0.006256	-0.19989	0.011139	-0.000916	-0.10666
14.399	0.04715	-0.00885	0.15564	0.01358	0.036774	-0.024719	0.35492	0.00412	-0.054474	0.16052	0.006714	0.067902	-0.12802	-0.79208	0.03891	0.77057	-0.065918	-0.014343	0.82703	0.010376	0.24414	0.00061	0.021973	-0.02182	-0.013885	0.012054	-0.020599	-0.001678	-0.18845	-0.02243	-0.00061	-0.090637
14.4	0.006256	-0.01358	0.16052	0.010834	0.052338	-0.01709	0.31754	-0.003815	-0.053711	0.39383	-0.010834	-0.032349	-0.12085	-0.28839	0.009918	-0.28519	-0.052795	-0.03952	0.059204	-0.016327	0.023499	0.024109	0.002136	-0.088654	-0.009613	0.011749	0.018311	0.000305	-0.10727	-0.046844	-0.000458	-0.077209
14.401	0.010071	0.061798	0.20035	0.00351	0.030365	-0.022888	0.31479	0.000153	-0.048065	0.73074	-0.015564	-0.065765	-0.089569	0.099487	0.007935	-0.47684	-0.031128	-0.006256	0.38681	0.016785	0.032349	-0.010223	-0.040131	-0.061646	-0.00061	-0.002899	-0.030975	-0.002136	-0.05249	0.009613	-0.001373	-0.071259
14.402	0.009613	0.071411	0.23956	-0.021515	0.001373	-0.030975	0.31433	0	-0.041199	-0.11078	-0.022583	-0.061646	-0.18814	0.1088	0.011749	0.54581	-0.047302	0.004883	0.49515	0.094604	-0.070343	0.036316	-0.041046	-0.028992	0.015564	-0.010529	-0.040436	-0.002594	0.029755	0.017395	0	-0.054321
14.403	0.005646	0.079041	0.18646	-0.010071	-0.004578	0.002747	0.29236	-0.002289	-0.033875	-0.20783	-0.007782	-0.053406	-0.42816	-0.062561	0.025024	0.56534	-0.0383	0.031281	0.42664	0.09903	-0.12863	0.06073	-0.048218	-0.052948	0.018921	-0.010681	0.036469	-0.000763	0.20264	-0.039825	0.000153	-0.047607
14.404	0.009155	0.1265	0.15366	-0.001984	0.009308	0.002136	0.21316	0.007172	0.009766	0.44373	-0.003967	-0.045776	-0.43915	-0.46341	-0.006409	0.13306	-0.020447	-0.014648	0.29984	-0.016937	-0.12848	0.07843	-0.026855	-0.052185	-0.001831	-0.008545	0.13351	-0.001373	0.40848	-0.016937	-0.00061	-0.034027
14.405	0.015717	0.15808	0.12161	0.027618	0.046082	0.019684	0.21561	0.014954	0.009613	0.8638	-0.016479	-0.012207	-0.24048	-0.58792	0.02182	-0.43686	-0.01358	0.036163	-0.006714	-0.088196	-0.15121	0.079651	-0.075836	-0.033112	0.014954	-0.007629	0.1918	-0.003815	0.42496	-0.000305	-0.003052	-0.020142
14.406	0.007935	0.17975	0.092621	-0.001984	0.0354	0.016632	0.20294	0.005035	0.04776	0.22659	-0.02533	-0.009918	0.046844	-0.93338	0.053864	-0.35568	-0.040436	0.028992	0.32806	-0.07019	0.080872	0.11444	-0.057678	-0.040741	0.017548	-0.016937	0.17883	-0.001373	0.60425	0.013275	-0.00351	-0.009003
14.407	0.012665	0.25559	0.083313	0.023193	0.00824	-0.010529	0.2092	-0.010376	0.08728	-0.72998	-0.025177	-0.00412	0.40726	-0.97321	0.019226	0.067596	-0.026703	0.032806	0.2478	-0.019073	0.000153	0.050201	-0.06073	-0.006866	0.006256	-0.010376	0.10117	-0.002441	0.37262	0.016937	0	0.005035
14.408	0.009613	0.26871	0.068817	0.025482	0.007629	-0.006409	0.24246	-0.012512	0.11993	-1.1079	-0.028839	-0.009613	0.39169	-0.61981	-0.016785	0.050964	-0.009155	0.011292	0.21881	-0.003357	-0.057068	0.007019	-0.059357	-0.018921	-0.000916	-0.006714	0.059052	-0.001221	0.18463	0.017395	-0.003967	0.005646
14.409	0.006104	0.28671	0.1506	0.010681	0.041504	-0.007172	0.2504	-0.004425	0.080109	-1.0361	-0.00885	0.007019	0.33783	-0.5484	-0.06897	0.27969	0.019684	-0.033875	0.019989	-0.040588	0.026855	-0.056458	-0.058136	-0.096588	-0.002441	-0.006714	0.15305	-0.000916	-0.088654	-0.034637	0.00824	0.019531
14.41	0.007629	0.33615	0.23956	0.013428	0.051575	0.014496	0.26504	0.001526	0.045471	-0.6395	0.014496	0.00351	0.27664	-0.072174	-0.084076	-0.078125	0.050812	-0.037384	-0.03418	-0.11307	0.12589	-0.11505	-0.033875	-0.1387	-0.00061	-0.008545	0.088654	-0.001526	0.007629	-0.001678	-0.001526	0.02533
14.411	0.007782	0.3714	0.25681	0.008545	0.039368	0.010681	0.25162	0.001068	0.038147	-0.37064	0.006561	-0.081787	0.21255	0.31525	-0.088654	-0.32211	0.080872	-0.018616	-0.086212	-0.076294	-0.15839	-0.12543	-0.06897	-0.2002	-0.004425	0.001984	-0.005493	-0.006561	0.14267	-0.030518	-0.002747	0.040894
14.412	0.01358	0.36194	0.25101	-0.005798	0.010986	-0.049133	0.21957	0.00061	0.032501	-0.39703	0.018921	-0.076599	0.28336	0.08606	-0.062408	-0.11658	0.06897	0.002136	-0.049896	0.000305	-0.54047	-0.079651	-0.063934	-0.21194	-0.002594	-0.004883	-0.086365	-0.004425	-0.14603	-0.10513	-0.000153	0.045166
14.413	0.013885	0.35629	0.2681	-0.031891	0.015259	-0.074463	0.2272	0.000916	0.040131	-0.50583	0.016937	-0.29846	0.29877	0.021973	-0.021515	-0.11047	0.016937	0.011902	0.062103	0.098724	-0.68848	-0.056458	-0.066833	-0.059357	0.014343	-0.012817	-0.043945	-0.003204	-0.099182	-0.037842	-0.00412	0.041962
14.414	0.011749	0.36346	0.22781	-0.00412	0.059814	-0.06485	0.20538	-0.005341	0.035706	-0.64133	0.021362	0.35034	0.14221	0.54321	-0.005798	-0.16327	-0.054169	-0.018921	0.012665	0.27374	0.060577	0.19043	-0.076447	0.04364	0.021057	-0.019989	0.032654	-0.000763	-0.26001	0.014038	-0.002594	0.029907
14.415	0.017548	0.37964	0.26443	-0.02121	0.04425	-0.044098	0.21561	-0.002136	0.019836	-0.53024	0.020142	-0.21103	0.048523	0.36575	0.014038	0.23529	-0.068359	-0.032959	-0.020142	0.21484	0.5954	0.38742	-0.027466	-0.032196	-0.000458	-0.014191	0.004425	-0.006256	0.079193	0.008698	-0.000305	0.043335
14.416	0	0.33844	0.29129	-0.010376	0.039063	-0.03479	0.22842	-0.005341	0.008698	-0.27084	0.020447	0.000305	-0.052338	0.31342	0.037079	0.11688	-0.057678	-0.00946	-0.02182	0.050507	0.23651	0.19394	-0.068054	-0.046997	-0.007019	-0.012054	0.007477	-0.004272	-0.3363	0.023499	0.000763	0.04425
14.417	0.010986	0.31097	0.29617	-0.004883	0.017395	-0.024109	0.23315	-0.001678	0.009613	-0.20752	0.017242	0.011444	-0.17639	0.30014	0.074158	0.007324	-0.043488	-0.055542	-0.043945	-0.031738	0.11414	0.10803	-0.074158	-0.019989	-0.009308	-0.013428	0.078583	-0.005798	-0.4744	-0.023193	-0.00412	0.035248
14.418	-0.001678	0.29098	0.24918	0.008698	0.016174	0.007935	0.2359	-0.003357	-0.002289	0.081024	0.010071	0.03006	-0.090332	-0.18051	0.07843	-0.10346	-0.024414	-0.032501	-0.070648	-0.057831	-0.004578	0.03952	-0.039063	-0.042572	-0.019989	-0.006714	0.076447	-0.00473	0.000458	-0.078125	0.001526	0.038147
14.419	0.003204	0.26657	0.22614	0.008545	0.034332	-0.003052	0.21118	-0.009003	-0.007935	0.61462	0.000458	-0.020599	-0.00412	-0.52399	0.081787	-0.17746	-0.006561	-0.045624	-0.16281	-0.085602	-0.04303	0.003967	-0.091248	-0.048676	-0.015411	-0.004883	0.078888	-0.001526	-0.018311	-0.13443	-0.009155	0.036774
14.42	0.011292	0.29358	0.22888	-0.002441	0.026398	-0.019073	0.17914	-0.002289	-0.012054	0.86609	-0.017242	0.087738	0.012207	-0.47928	0.070038	-0.11093	-0.007782	-0.039673	-0.14206	-0.18021	-0.027466	0.010529	-0.084686	-0.055084	-0.012207	-0.01709	0.074158	-0.006256	-0.44815	-0.11688	-0.001373	0.044403
14.421	0.016937	0.24887	0.20813	0.014954	0.0354	-0.05249	0.18112	-0.010834	-0.042114	0.83878	-0.031586	0.049591	0.086212	-0.43015	0.028687	-0.058289	0.018768	-0.063171	-0.21118	-0.31067	-0.001984	0.021057	-0.067291	-0.066986	-0.020447	-0.02121	0.074768	-0.00061	-0.47455	-0.071869	-0.001373	0.045776
14.422	0.014038	0.28595	0.1709	0.011597	0.046844	-0.067139	0.12833	0.003662	-0.061493	0.97977	-0.017395	0.085144	0.10635	-0.23773	-0.057678	-0.009918	0.048523	-0.016022	-0.24262	-0.31616	-0.022278	0.043335	-0.023193	-0.084839	-0.001373	-0.03479	0.098724	-0.007477	-0.09552	0.017548	-0.002594	0.050354
14.423	0.005188	0.25909	0.16541	0.001221	0.037079	-0.031433	0.15793	-0.002136	-0.055695	0.21423	-0.003967	-0.026703	0.033112	-0.15961	-0.11627	-0.055847	0.053558	-0.039215	-0.27268	-0.25848	-0.050049	0.017395	-0.053253	-0.14435	-0.015259	-0.038147	0.12299	0.000458	0.023499	-0.027618	-0.002594	0.068817
14.424	0.007782	0.25162	0.18494	0.00824	0.013275	-0.019684	0.2771	0	-0.033875	-0.51712	0.008087	0.1619	-0.02182	-0.12848	-0.10132	-0.11688	0.075226	-0.016022	-0.2356	0.12482	-0.072632	-0.001221	-0.058441	-0.06424	0	-0.027771	0.095062	-0.006714	0.10788	-0.072479	-0.000153	0.069122
14.425	0.001373	0.18799	0.16678	0.004272	-0.002441	0.032349	0.26352	0.016327	-0.007935	-0.47043	0.019379	0.024261	-0.073242	0.35858	-0.13809	-0.042419	0.13275	-0.032959	-0.19486	0.62103	-0.063171	-0.027924	-0.073853	-0.08728	0.024261	-0.025635	0.070801	-0.00412	0.03418	-0.043945	-0.000305	0.070496
14.426	0.005646	0.15732	0.11307	0.006714	0.006561	0.016479	0.26215	0.003204	0.025635	-0.36346	0.023499	-0.14145	-0.11459	0.58258	-0.097656	0.26825	0.13473	-0.026855	-0.1828	0.49408	-0.090942	-0.002899	-0.076141	-0.093231	0.015411	-0.02533	0.059509	-0.006866	0.053101	-0.035248	-0.006104	0.050507
14.427	0.013275	0.067139	0.093994	0.021973	0.066071	0.026398	0.25467	0.008545	0.058441	-0.3743	0.021667	0.001984	-0.14725	0.46707	-0.067139	-0.40146	0.061035	0.014191	-0.33554	0.20416	-0.06134	0.008392	-0.088959	-0.095978	0.013123	-0.03418	0.053558	-0.007782	-0.16739	-0.033112	-0.002441	0.04425
14.428	0.013275	0.078125	0.10223	0.03067	0.069427	0.066833	0.24948	0.011444	0.049286	-0.36255	0.01236	0.36102	-0.12207	0.40604	-0.044708	0.2713	0.018158	0.044556	-0.58319	-0.024109	0.024872	0.038605	-0.10056	-0.052032	0.018616	-0.040131	0.044861	-0.008698	-0.40176	-0.02121	-0.001221	0.03891
14.429	0.010834	0.15228	0.10635	0.003815	0.052948	0.068207	0.38238	-0.001068	-0.076294	-0.21164	0.01358	0.046692	-0.069275	0.62759	-0.033569	-0.039215	0.013428	0.058899	-0.48935	-0.023041	-0.046387	0.094147	-0.08728	-0.046844	0.00824	-0.036469	0.019379	-0.002289	-0.32684	-0.045319	-0.00061	0.032043
14.43	0.005493	0.21561	0.11627	-0.024567	0.050964	0.034943	0.38864	-0.003357	-0.087891	0.13657	0.011444	0.06134	-0.045929	1.0085	-0.004578	0.20477	-0.000305	0.078735	0.072174	0.14374	-0.009155	0.13672	-0.075378	-0.04425	0.014496	-0.044861	-0.026093	-0.004272	0.61172	-0.069733	-0.002441	0.022278
14.431	-0.000458	0.21301	0.07019	-0.011902	0.038452	0.017395	0.39169	0.002899	-0.077209	0.47607	0.010834	-0.056458	0.047913	0.82398	0.025482	0.224	-0.064392	-0.039978	0.3537	0.24048	-0.13702	0.11581	-0.08667	-0.032959	0.026855	-0.054474	0.021362	-0.005035	0.76538	-0.049591	0.006409	0.019684
14.432	-0.003815	0.17929	0.087585	0.006409	0.039215	0.00885	0.35492	0.001068	-0.072327	-0.10757	0.015564	0.052643	-0.048676	0.73837	0.039978	-0.5127	-0.078888	-0.10605	0.070801	0.11047	-0.14618	-0.001678	-0.11688	0.025787	0.025024	-0.065155	0.10315	0.001526	0.31326	-0.06073	-0.000916	0.007477
14.433	0.006104	0.19501	0.095367	0.01297	0.028381	0.016327	0.35812	0.000763	-0.033112	-0.31784	-0.004578	-0.27374	-0.049438	-0.10422	0.064392	0.15442	-0.080109	-0.084991	-0.19577	0.000916	-0.059052	-0.030823	-0.10239	-0.007324	0.02243	-0.08255	0.11978	-0.007324	-0.21423	-0.059814	-0.004883	0.001068
14.434	0.00061	0.19989	0.032959	0.015411	0.02594	0.004578	0.37811	-0.00061	0	0.12833	0.001373	0.085602	-0.20233	-0.26337	0.087128	-0.19653	-0.095215	0.055389	0.086365	-0.061035	0.040283	-0.05127	-0.10223	0.047455	0.044098	-0.089264	0.1413	-0.006104	-0.19882	-0.065918	-0.004272	-0.023499
14.435	0.001831	0.18356	0.038452	0.004425	0.032959	0.010529	0.41763	0.008392	-0.0177	0.24262	0.021362	0.30014	-0.19134	-0.1152	0.049744	-0.005188	-0.097504	0.090637	0.19043	-0.063324	-0.038757	-0.09491	-0.098267	0.054169	0.050201	-0.10559	0.071716	0.002289	0.032501	-0.14084	-0.002136	-0.028076
14.436	0.001373	0.177	-0.010681	0.009308	0.035858	0.02243	0.40955	0.004425	-0.007019	0.057373	0.016022	0.000305	-0.13748	-0.018158	-0.025482	0.28458	-0.056458	0.06073	0.52231	-0.081024	-0.10437	-0.14832	-0.065918	-0.026703	0.030212	-0.12314	0.075531	-0.002441	0.16983	-0.066071	-0.009308	-0.036621
14.437	-0.000305	0.13855	-0.066986	0.006256	0.035553	0.000153	0.41748	0.000305	-0.023651	0.10696	0.000916	-0.19577	-0.079651	-0.31174	-0.009918	0.41412	-0.011444	0.007172	0.48294	-0.08667	-0.014954	-0.21439	-0.077972	-0.089264	0.045624	-0.1651	0.064392	-0.009308	0.38864	-0.038757	-0.001221	-0.059204
